<svg xmlns="http://www.w3.org/2000/svg" width="20" viewBox="0 0 24 24" fill="none" stroke="currentColor" stroke-width="2" stroke-linecap="round" stroke-linejoin="round" class="lucide lucide-phone h-8 w-8 text-white" aria-hidden="true"><path d="M22 16.92v3a2 2 0 0 1-2.18 2 19.79 19.79 0 0 1-8.63-3.07 19.5 19.5 0 0 1-6-6A19.79 19.79 0 0 1 2.11 4.18 2 2 0 0 1 4 2h3a2 2 0 0 1 2 1.72c.13 1.21.37 2.39.7 3.5a2 2 0 0 1-.45 2.11L8.09 10.91a16 16 0 0 0 6 6l1.58-1.58a2 2 0 0 1 2.11-.45c1.11.33 2.29.57 3.5.7a2 2 0 0 1 1.72 2Z"></path></svg>